{"title":"Tell No One 2006 DVDrip French Klam","uid":6212928,"size":2104196984,"categoryP":"video","categoryS":"movies","magnet":"?xt=urn:btih:ccf1584f66e421a510a804e0c521255822bbbe71&amp;dn=Tell+No+One+2006+DVDrip+French+Klam&amp;tr=udp%3A%2F%2Ftracker.openbittorrent.com%3A80&amp;tr=udp%3A%2F%2Fopen.demonii.com%3A1337&amp;tr=udp%3A%2F%2Ftracker.coppersurfer.tk%3A6969&amp;tr=udp%3A%2F%2Fexodus.desync.com%3A6969","seeders":1,"leechers":2,"uploader":"Klambake","files":-1,"time":1299055249,"description":"With: FranÃƒÂ§ois Cluzet, Marie-JosÃƒÂ©e Croze and AndrÃƒÂ© Dussollier\n\nThe pediatrician Alexandre Beck misses his beloved wife Margot Beck, who was brutally murdered eight years ago when he was the prime suspect. When two bodies are found near where the corpse of Margot was dumped, the police reopen the case and Alex becomes suspect again. The mystery increases when Alex receives an e-mail showing Margot older and alive.\n\nGeneral:\n\nComplete name                    : Tel No One\\Tell No One.avi\nFormat                           : AVI\nFormat/Info                      : Audio Video Interleave\nFile size                        : 1.96 GiB\nDuration                         : 2h 5mn\nOverall bit rate                 : 2 231 Kbps\n\nVideo:\n\nFormat                           : MPEG-4 Visual\nFormat profile                   : Simple@L3\nFormat settings, BVOP            : No\nFormat settings, QPel            : No\nFormat settings, GMC             : No warppoints\nFormat settings, Matrix          : Default (H.263)\nCodec ID                         : XVID\nCodec ID/Hint                    : XviD\nDuration                         : 2h 5mn\nBit rate                         : 1 772 Kbps\nWidth                            : 640 pixels\nHeight                           : 480 pixels\nDisplay aspect ratio             : 4:3\nFrame rate                       : 25.000 fps\nColor space                      : YUV\nChroma subsampling               : 4:2:0\nBit depth                        : 8 bits\nScan type                        : Progressive\nBits/(Pixel*Frame)               : 0.231\nStream size                      : 1.56 GiB (79%)\nWriting library                  : XviD 1.1.2 (UTC 2006-11-01)\n\nAudio:\n\nFormat                           : AC-3\nFormat/Info                      : Audio Coding 3\nMode extension                   : CM (complete main)\nCodec ID                         : 2000\nDuration                         : 2h 5mn\nBit rate mode                    : Constant\nBit rate                         : 448 Kbps\nChannel(s)                       : 6 channels\nChannel positions                : Front: L C R, Side: L R, LFE\nSampling rate                    : 48.0 KHz\nBit depth                        : 16 bits\nStream size                      : 403 MiB (20%)\nAlignment                        : Aligned on interleaves\nInterleave, duration             : 32 ms (0.80 video frame)\nInterleave, preload duration     : 512 ms\n","torrent":{"xt":"urn:btih:ccf1584f66e421a510a804e0c521255822bbbe71","amp;dn":"Tell+No+One+2006+DVDrip+French+Klam","amp;tr":["udp%3A%2F%2Ftracker.openbittorrent.com%3A80","udp%3A%2F%2Fopen.demonii.com%3A1337","udp%3A%2F%2Ftracker.coppersurfer.tk%3A6969","udp%3A%2F%2Fexodus.desync.com%3A6969"],"infoHash":"ccf1584f66e421a510a804e0c521255822bbbe71","infoHashBuffer":{"type":"Buffer","data":[204,241,88,79,102,228,33,165,16,168,4,224,197,33,37,88,34,187,190,113]},"announce":[],"urlList":[]}}